<svg xmlns="http://www.w3.org/2000/svg" viewBox="0 0 353.43 272.46"><defs><style>.cls-1{fill:none;stroke:#231f20;stroke-miterlimit:10;}</style></defs><title>broad</title><g id="Layer_2" data-name="Layer 2"><g id="Layer_2-2" data-name="Layer 2"><line class="cls-1" x1="41.52" y1="24.09" x2="41.52" y2="258.03"/><line class="cls-1" x1="4.3" y1="40.04" x2="41.52" y2="24.09"/><polyline class="cls-1" points="49.11 24.09 96.2 0.55 345.33 101.57"/><line class="cls-1" x1="96.2" y1="0.55" x2="96.2" y2="272.46"/><line class="cls-1" x1="49.11" y1="24.09" x2="49.11" y2="258.03"/><line class="cls-1" x1="4.3" y1="40.04" x2="0.5" y2="252.72"/><polyline class="cls-1" points="345.33 101.57 345.33 167.65 352.93 167.65 352.93 231.45"/><polygon class="cls-1" points="172.24 54.96 172.24 175.11 212.29 178.54 214.47 65.26 172.24 54.96"/><polygon class="cls-1" points="96.2 95.01 143.64 101.57 147.45 246.43 96.2 249.1 65.83 249.1 62.4 98.06 96.2 95.01"/><line class="cls-1" x1="41.52" y1="24.09" x2="49.11" y2="27.81"/><rect class="cls-1" x="104.92" y="46.3" width="15.96" height="18.56"/><rect class="cls-1" x="104.92" y="70.82" width="15.96" height="18.91"/><rect class="cls-1" x="128.94" y="54.96" width="15.85" height="15.85"/><rect class="cls-1" x="153.1" y="59.61" width="12.49" height="16.46"/><rect class="cls-1" x="128.94" y="76.07" width="15.85" height="15.85"/><rect class="cls-1" x="153.1" y="80.27" width="12.49" height="21.29"/><rect class="cls-1" x="153.1" y="107.59" width="12.49" height="14.71"/><rect class="cls-1" x="153.1" y="128.96" width="12.49" height="17.42"/><rect class="cls-1" x="156.96" y="154.18" width="8.64" height="13.66"/><rect class="cls-1" x="156.96" y="178.54" width="8.64" height="14.16"/><rect class="cls-1" x="156.96" y="201.11" width="10.16" height="15.76"/><rect class="cls-1" x="175.97" y="62.89" width="13.19" height="19.06"/><rect class="cls-1" x="197.22" y="70.82" width="8.86" height="14.85"/><rect class="cls-1" x="178.34" y="85.67" width="10.82" height="15.9"/><rect class="cls-1" x="178.34" y="111.04" width="10.82" height="14.21"/><rect class="cls-1" x="180.03" y="133.7" width="9.13" height="17.59"/><rect class="cls-1" x="180.03" y="156.7" width="9.13" height="15.35"/><rect class="cls-1" x="197.22" y="90.92" width="8.86" height="16.67"/><rect class="cls-1" x="197.22" y="114.95" width="8.86" height="14.01"/><rect class="cls-1" x="197.22" y="136.51" width="8.86" height="14.79"/><rect class="cls-1" x="197.22" y="156.7" width="8.86" height="15.35"/><polygon class="cls-1" points="12.89 72.42 12.89 85.67 22.91 81.95 22.91 70.82 12.89 72.42"/></g></g></svg>