<svg xmlns="http://www.w3.org/2000/svg" viewBox="0 0 1976.91 316.33"><defs><style>.cls-1{fill:none;stroke:#231f20;stroke-miterlimit:10;}</style></defs><title>buildings</title><g id="Layer_2" data-name="Layer 2"><g id="Layer_2-2" data-name="Layer 2"><polyline class="cls-1" points="0.5 256.24 5.66 17.7 20.41 9.05 37.36 13.38 48.42 1.85 91.19 11.21 125.84 19.14 158.28 26.35 185.56 34.28 214.31 41.48 239.38 46.53 259.29 50.85 264.45 213.72"/><line class="cls-1" x1="33.68" y1="260.57" x2="37.36" y2="13.38"/><line class="cls-1" x1="48.42" y1="1.85" x2="46.21" y2="269.68"/><line class="cls-1" x1="91.19" y1="11.22" x2="89.39" y2="174"/><line class="cls-1" x1="94.57" y1="11.99" x2="94.57" y2="182.72"/><line class="cls-1" x1="58.41" y1="9.53" x2="54.78" y2="248.56"/><line class="cls-1" x1="81.44" y1="16.21" x2="81.44" y2="234.69"/><line class="cls-1" x1="117.87" y1="24.59" x2="117.87" y2="236.47"/><line class="cls-1" x1="99.09" y1="19.63" x2="99.09" y2="224.56"/><line class="cls-1" x1="134.62" y1="29.05" x2="134.62" y2="224.56"/><line class="cls-1" x1="151.37" y1="31.04" x2="151.37" y2="206.69"/><line class="cls-1" x1="165.58" y1="36" x2="165.58" y2="216.12"/><line class="cls-1" x1="181.32" y1="39.47" x2="181.32" y2="200.74"/><line class="cls-1" x1="193.5" y1="42.45" x2="193.5" y2="206.69"/><line class="cls-1" x1="208.23" y1="45.92" x2="210.76" y2="211.16"/><line class="cls-1" x1="218.38" y1="48.41" x2="220.92" y2="208.68"/><line class="cls-1" x1="231.58" y1="52.38" x2="234.62" y2="208.68"/><line class="cls-1" x1="241.22" y1="52.38" x2="244.27" y2="200.74"/><line class="cls-1" x1="252.9" y1="57.83" x2="257.47" y2="208.68"/><line class="cls-1" x1="58.41" y1="9.53" x2="81.44" y2="16.21"/><line class="cls-1" x1="58.18" y1="24.59" x2="81.44" y2="29.05"/><line class="cls-1" x1="57.96" y1="39.47" x2="81.44" y2="44.52"/><line class="cls-1" x1="57.96" y1="56.03" x2="81.44" y2="60.39"/><line class="cls-1" x1="57.47" y1="71.59" x2="81.44" y2="75.01"/><line class="cls-1" x1="57.22" y1="87.76" x2="81.44" y2="90.25"/><line class="cls-1" x1="56.98" y1="103.63" x2="81.44" y2="105.19"/><line class="cls-1" x1="56.6" y1="118.87" x2="81.44" y2="120.11"/><line class="cls-1" x1="56.49" y1="135.76" x2="81.44" y2="135.76"/><line class="cls-1" x1="56.28" y1="149.7" x2="81.44" y2="149.7"/><line class="cls-1" x1="56" y1="168.03" x2="81.44" y2="168.03"/><line class="cls-1" x1="55.78" y1="182.72" x2="81.44" y2="182.72"/><line class="cls-1" x1="99.09" y1="19.63" x2="117.87" y2="24.59"/><line class="cls-1" x1="99.09" y1="34.57" x2="117.87" y2="37.99"/><line class="cls-1" x1="99.09" y1="48.41" x2="117.87" y2="52.38"/><line class="cls-1" x1="99.09" y1="62.11" x2="117.87" y2="65.7"/><line class="cls-1" x1="99.09" y1="77.73" x2="117.87" y2="80.26"/><line class="cls-1" x1="99.09" y1="92.61" x2="117.87" y2="94.4"/><line class="cls-1" x1="99.09" y1="106.22" x2="117.87" y2="108.75"/><line class="cls-1" x1="99.09" y1="122.09" x2="117.87" y2="122.09"/><line class="cls-1" x1="99.09" y1="137.23" x2="117.87" y2="137.23"/><line class="cls-1" x1="99.09" y1="152.01" x2="117.87" y2="152.01"/><line class="cls-1" x1="99.09" y1="166.79" x2="117.87" y2="166.79"/><line class="cls-1" x1="127.07" y1="19.42" x2="127.07" y2="206.69"/><line class="cls-1" x1="130.6" y1="19.63" x2="130.6" y2="232.02"/><line class="cls-1" x1="134.62" y1="29.32" x2="151.37" y2="31.3"/><line class="cls-1" x1="134.62" y1="42" x2="151.37" y2="44.52"/><line class="cls-1" x1="134.62" y1="54.23" x2="151.37" y2="57.83"/><line class="cls-1" x1="134.62" y1="68.69" x2="151.37" y2="70.5"/><line class="cls-1" x1="134.62" y1="82.13" x2="151.37" y2="84.19"/><line class="cls-1" x1="134.62" y1="97.35" x2="151.37" y2="97.35"/><line class="cls-1" x1="134.62" y1="109.77" x2="151.37" y2="111.32"/><line class="cls-1" x1="134.62" y1="124.57" x2="151.37" y2="125.45"/><line class="cls-1" x1="134.62" y1="138.7" x2="151.37" y2="138.7"/><line class="cls-1" x1="134.62" y1="152.01" x2="151.37" y2="152.01"/><line class="cls-1" x1="134.62" y1="166.79" x2="151.37" y2="166.79"/><line class="cls-1" x1="158.28" y1="26.35" x2="156.93" y2="195.79"/><line class="cls-1" x1="162.5" y1="27.57" x2="160.63" y2="182.72"/><line class="cls-1" x1="165.58" y1="36" x2="181.32" y2="39.47"/><line class="cls-1" x1="165.58" y1="48.41" x2="181.32" y2="50.9"/><line class="cls-1" x1="165.58" y1="60.76" x2="181.32" y2="63.76"/><line class="cls-1" x1="165.58" y1="73.2" x2="181.32" y2="76.48"/><line class="cls-1" x1="165.58" y1="86.34" x2="181.32" y2="88.63"/><line class="cls-1" x1="165.58" y1="99.78" x2="181.32" y2="100.78"/><line class="cls-1" x1="165.58" y1="112.78" x2="181.32" y2="114.36"/><line class="cls-1" x1="165.58" y1="126.56" x2="181.32" y2="126.56"/><line class="cls-1" x1="165.58" y1="138.7" x2="181.32" y2="140.08"/><line class="cls-1" x1="165.58" y1="152.01" x2="181.32" y2="152.8"/><line class="cls-1" x1="165.58" y1="166.09" x2="181.32" y2="165.52"/><line class="cls-1" x1="193.5" y1="42.45" x2="208.23" y2="45.92"/><line class="cls-1" x1="193.5" y1="54.23" x2="208.41" y2="57.83"/><line class="cls-1" x1="193.5" y1="66.4" x2="208.58" y2="68.69"/><line class="cls-1" x1="193.5" y1="78.98" x2="208.77" y2="81.22"/><line class="cls-1" x1="193.5" y1="91.57" x2="208.77" y2="93.19"/><line class="cls-1" x1="193.5" y1="103.34" x2="208.77" y2="104.15"/><line class="cls-1" x1="193.5" y1="116.13" x2="209.5" y2="116.13"/><line class="cls-1" x1="193.5" y1="128.01" x2="209.49" y2="128.01"/><line class="cls-1" x1="193.5" y1="140.5" x2="209.68" y2="140.5"/><line class="cls-1" x1="193.5" y1="154.16" x2="209.89" y2="154.16"/><line class="cls-1" x1="193.5" y1="166.09" x2="210.07" y2="166.09"/><line class="cls-1" x1="193.5" y1="178.79" x2="210.27" y2="178.79"/><line class="cls-1" x1="193.5" y1="191.75" x2="210.27" y2="191.75"/><line class="cls-1" x1="218.38" y1="48.41" x2="231.58" y2="52.38"/><line class="cls-1" x1="218.38" y1="59.36" x2="231.58" y2="62.26"/><line class="cls-1" x1="218.73" y1="70.5" x2="231.98" y2="73.2"/><line class="cls-1" x1="218.73" y1="82.13" x2="232.2" y2="84.19"/><line class="cls-1" x1="219.1" y1="94.08" x2="232.44" y2="96.5"/><line class="cls-1" x1="219.29" y1="105.86" x2="232.65" y2="107.27"/><line class="cls-1" x1="219.29" y1="117.53" x2="232.88" y2="119.04"/><line class="cls-1" x1="219.65" y1="129.05" x2="233.1" y2="130.53"/><line class="cls-1" x1="219.85" y1="141.48" x2="233.33" y2="142.09"/><line class="cls-1" x1="220.05" y1="154.16" x2="233.56" y2="154.16"/><line class="cls-1" x1="220.05" y1="166.09" x2="233.56" y2="166.54"/><line class="cls-1" x1="220.05" y1="178.79" x2="234.04" y2="178.79"/><line class="cls-1" x1="220.63" y1="190.59" x2="234.25" y2="189.69"/><line class="cls-1" x1="241.22" y1="52.38" x2="252.9" y2="57.83"/><line class="cls-1" x1="241.22" y1="63.89" x2="252.9" y2="66.4"/><line class="cls-1" x1="241.68" y1="74.46" x2="253.48" y2="77.07"/><line class="cls-1" x1="241.68" y1="86.63" x2="253.82" y2="88.14"/><line class="cls-1" x1="242.14" y1="97.1" x2="254.17" y2="99.82"/><line class="cls-1" x1="242.37" y1="108.07" x2="254.49" y2="110.38"/><line class="cls-1" x1="242.62" y1="120.35" x2="254.81" y2="120.95"/><line class="cls-1" x1="242.84" y1="131.12" x2="255.12" y2="131.12"/><line class="cls-1" x1="242.84" y1="143.19" x2="255.5" y2="143.8"/><line class="cls-1" x1="242.84" y1="154.16" x2="255.5" y2="154.16"/><line class="cls-1" x1="243.56" y1="166.32" x2="256.19" y2="166.54"/><line class="cls-1" x1="243.77" y1="176.71" x2="256.19" y2="176.71"/><line class="cls-1" x1="244.02" y1="188.88" x2="256.87" y2="188.88"/><line class="cls-1" x1="186.71" y1="34.57" x2="187.39" y2="196.99"/><line class="cls-1" x1="190.1" y1="36" x2="190.1" y2="189.69"/><line class="cls-1" x1="212.31" y1="40.98" x2="214.34" y2="182.72"/><line class="cls-1" x1="215.51" y1="42" x2="218.38" y2="182.72"/><line class="cls-1" x1="234.62" y1="45.57" x2="238.01" y2="191.75"/><line class="cls-1" x1="238.01" y1="45.57" x2="239.76" y2="168.95"/><line class="cls-1" x1="820.8" y1="24.09" x2="820.8" y2="258.03"/><line class="cls-1" x1="783.58" y1="40.04" x2="820.8" y2="24.09"/><polyline class="cls-1" points="828.39 24.09 875.48 0.55 1124.61 101.57"/><line class="cls-1" x1="875.48" y1="0.55" x2="875.48" y2="272.46"/><line class="cls-1" x1="828.39" y1="24.09" x2="828.39" y2="258.03"/><line class="cls-1" x1="783.58" y1="40.04" x2="779.78" y2="252.72"/><polyline class="cls-1" points="1124.61 101.57 1124.61 167.65 1132.21 167.65 1132.21 231.45"/><polygon class="cls-1" points="951.52 54.96 951.52 175.11 991.57 178.54 993.75 65.26 951.52 54.96"/><polygon class="cls-1" points="875.48 95.01 922.92 101.57 926.73 246.43 875.48 249.1 845.11 249.1 841.68 98.06 875.48 95.01"/><line class="cls-1" x1="820.8" y1="24.09" x2="828.39" y2="27.81"/><rect class="cls-1" x="884.21" y="46.3" width="15.96" height="18.56"/><rect class="cls-1" x="884.21" y="70.82" width="15.96" height="18.91"/><rect class="cls-1" x="908.22" y="54.96" width="15.85" height="15.85"/><rect class="cls-1" x="932.39" y="59.61" width="12.49" height="16.46"/><rect class="cls-1" x="908.22" y="76.07" width="15.85" height="15.85"/><rect class="cls-1" x="932.39" y="80.27" width="12.49" height="21.29"/><rect class="cls-1" x="932.39" y="107.59" width="12.49" height="14.71"/><rect class="cls-1" x="932.39" y="128.96" width="12.49" height="17.42"/><rect class="cls-1" x="936.24" y="154.18" width="8.64" height="13.66"/><rect class="cls-1" x="936.24" y="178.54" width="8.64" height="14.16"/><rect class="cls-1" x="936.24" y="201.11" width="10.16" height="15.76"/><rect class="cls-1" x="955.25" y="62.89" width="13.19" height="19.06"/><rect class="cls-1" x="976.5" y="70.82" width="8.86" height="14.85"/><rect class="cls-1" x="957.62" y="85.67" width="10.82" height="15.9"/><rect class="cls-1" x="957.62" y="111.04" width="10.82" height="14.21"/><rect class="cls-1" x="959.31" y="133.7" width="9.13" height="17.59"/><rect class="cls-1" x="959.31" y="156.7" width="9.13" height="15.35"/><rect class="cls-1" x="976.5" y="90.92" width="8.86" height="16.67"/><rect class="cls-1" x="976.5" y="114.95" width="8.86" height="14.01"/><rect class="cls-1" x="976.5" y="136.51" width="8.86" height="14.79"/><rect class="cls-1" x="976.5" y="156.7" width="8.86" height="15.35"/><polygon class="cls-1" points="792.17 72.42 792.17 85.67 802.19 81.95 802.19 70.82 792.17 72.42"/><line class="cls-1" x1="445.68" y1="27" x2="434.2" y2="316.31"/><polyline class="cls-1" points="314.87 103.44 445.68 27 537.38 71.07 539.17 311.28"/><line class="cls-1" x1="314.87" y1="103.45" x2="295.82" y2="285.56"/><polyline class="cls-1" points="537.42 77.5 550.57 74.66 724.3 159.78 730.93 270.9"/><polyline class="cls-1" points="724.47 162.6 728.89 162.6 748.76 172.78 756.91 285.56"/><polygon class="cls-1" points="335.49 100.48 352.16 91.28 352.16 113.86 335.49 121.39 335.49 100.48"/><polygon class="cls-1" points="358.92 87.51 376.49 77.06 376.49 103.44 358.92 110.52 358.92 87.51"/><line class="cls-1" x1="550.57" y1="74.66" x2="553.12" y2="278.64"/><line class="cls-1" x1="728.89" y1="162.6" x2="736.06" y2="254.8"/><polyline class="cls-1" points="314.87 103.44 302.14 100.48 442.73 11.82 477.87 27 468.86 38.14"/><polyline class="cls-1" points="474.97 30.6 539.17 61.59 531.5 68.24"/><polyline class="cls-1" points="722.76 159.02 728.89 154.01 558.08 65.77 551.85 70.78 539.45 77.06"/><polyline class="cls-1" points="748.76 172.78 756.91 169.14 730.93 156.94 724.47 157.63"/><polygon class="cls-1" points="314.87 139.79 329.63 132.68 327.38 154.43 312.96 161.54 314.87 139.79"/><polygon class="cls-1" points="383.25 74.66 381 96.72 403.98 85.69 406.23 62 383.25 74.66"/><polygon class="cls-1" points="412.54 57.63 412.54 81.66 436.87 69.64 436.87 44.02 412.54 57.63"/><polygon class="cls-1" points="316.12 111.63 331.48 103.44 329.63 126.14 316.12 132.68 316.12 111.63"/><polygon class="cls-1" points="334.04 130.9 350.25 123.5 348.55 147.11 331.48 153.34 334.04 130.9"/><polygon class="cls-1" points="355.66 121.39 374.71 110.52 372.72 136.44 353.67 143.57 355.66 121.39"/><polygon class="cls-1" points="381 106.33 402.3 97.9 401.17 123.5 379.83 132.68 381 106.33"/><polygon class="cls-1" points="410.27 93.79 434.2 82.85 434.2 110.52 408.56 121.39 410.27 93.79"/><polygon class="cls-1" points="309.58 192.93 323.8 188.71 325.23 163.37 310.72 169.14 309.58 192.93"/><polygon class="cls-1" points="329.63 163.37 346.84 157.03 343.71 182.11 329.63 186.86 329.63 163.37"/><polygon class="cls-1" points="352.25 154.66 370.73 147.11 367.89 173.4 350.25 179.21 352.25 154.66"/><polygon class="cls-1" points="376.99 143.57 376.99 171.95 397.47 164.42 398.89 135.91 376.99 143.57"/><polygon class="cls-1" points="407.42 132.68 407.42 163.16 431.03 153.93 432.17 123.5 407.42 132.68"/><polygon class="cls-1" points="307.31 201.45 322.77 196.82 319.44 222.87 307.31 225.3 307.31 201.45"/><polygon class="cls-1" points="326.34 194.5 343.46 189.09 341.8 217.57 325.23 220.88 326.34 194.5"/><polygon class="cls-1" points="348.94 187.76 367.01 182.47 365.82 211.06 348.94 216.25 348.94 187.76"/><polygon class="cls-1" points="374.86 180.7 396.99 174.74 395.56 206.53 374.86 211.06 374.86 180.7"/><polygon class="cls-1" points="404.12 172.97 404.12 204.99 429.58 199.35 429.58 163.37 404.12 172.97"/><polygon class="cls-1" points="305.35 232.79 319.71 229.63 317.4 257.39 305.35 257.39 305.35 232.79"/><polygon class="cls-1" points="323.69 228.93 341.86 225.3 338.24 255.99 322.77 256.69 323.69 228.93"/><polygon class="cls-1" points="346.84 224.36 365.91 220.88 365.91 253.35 345.27 253.35 346.84 224.36"/><polygon class="cls-1" points="372.34 219.44 395.06 215.4 392.79 251.42 372.34 251.42 372.34 219.44"/><polygon class="cls-1" points="401.88 213.64 429.58 208.72 428.38 247.03 401.12 249.31 401.88 213.64"/><polygon class="cls-1" points="449.51 163.37 449.51 198.47 465.21 201.01 465.21 168.09 449.51 163.37"/><polygon class="cls-1" points="449.51 209.75 466.78 212.66 465.21 249.31 449.51 245.29 449.51 209.75"/><polygon class="cls-1" points="452.34 120.03 469.91 125.57 466.78 159.02 452.34 155.57 452.34 120.03"/><polygon class="cls-1" points="452.34 81.66 451.06 110.76 466.99 115.29 468.46 87.03 452.34 81.66"/><polygon class="cls-1" points="453.78 44.02 453.78 70.29 469.91 75.74 469.91 49.42 453.78 44.02"/><polygon class="cls-1" points="555.82 87.69 555.82 110.66 570.41 116.25 570.41 91.52 555.82 87.69"/><polygon class="cls-1" points="555.82 120.86 572 126.34 572 149.91 556.9 144.63 555.82 120.86"/><polygon class="cls-1" points="557.77 154.78 572 159.02 572 184.39 557.77 181.6 557.77 154.78"/><polygon class="cls-1" points="557.77 191.15 573.53 195 573.53 219.79 557.77 217.76 557.77 191.15"/><polygon class="cls-1" points="559.3 229.13 559.3 256.15 575.28 256.15 573.53 230.76 559.3 229.13"/><polygon class="cls-1" points="585 100.99 585.93 123.44 599.01 127.49 599.01 106.63 585 100.99"/><polygon class="cls-1" points="585.93 131.9 585.93 153.98 599.81 159.02 600.73 134.72 585.93 131.9"/><polygon class="cls-1" points="588.04 162.81 588.04 188.45 600.73 191.76 600.73 166.98 588.04 162.81"/><polygon class="cls-1" points="588.04 195.56 589.63 225.49 602.32 224.88 601.52 198.47 588.04 195.56"/><polygon class="cls-1" points="588.71 230.64 590.03 259.71 602.32 258 602.32 233.47 588.71 230.64"/><polygon class="cls-1" points="610.13 112.39 610.13 133.72 624.23 137.66 624.23 117.82 610.13 112.39"/><polygon class="cls-1" points="611.5 142.3 611.5 161.99 624.84 166.07 624.23 145.46 611.5 142.3"/><polygon class="cls-1" points="613.62 171.98 614.68 195.56 625.44 197.73 624.84 175.22 613.62 171.98"/><polygon class="cls-1" points="614.68 202.65 615.59 226.85 626.96 229.13 626.96 205.47 614.68 202.65"/><polygon class="cls-1" points="615.74 235.01 616.35 260.62 628.78 259.71 627.56 236.56 615.74 235.01"/><polygon class="cls-1" points="659.65 242.1 668.04 244 668.04 263.55 659.65 262.86 659.65 242.1"/><polygon class="cls-1" points="657.42 212.51 658.72 234.31 667.11 235.87 667.11 214.93 657.42 212.51"/><polygon class="cls-1" points="656.67 184.39 657.42 205.59 665.43 207.32 665.43 187.94 656.67 184.39"/><polygon class="cls-1" points="636.54 177.29 636.54 200.23 646.61 202.65 646.61 180.68 636.54 177.29"/><polygon class="cls-1" points="637.66 208.7 637.66 230.64 648.28 232.06 648.28 210.53 637.66 208.7"/><polygon class="cls-1" points="638.96 238.29 638.96 261.3 649.59 262.16 648.28 240.02 638.96 238.29"/><polygon class="cls-1" points="634.17 150.06 634.17 170.47 644.28 172.78 644.28 154.19 634.17 150.06"/><polygon class="cls-1" points="634.17 125.03 634.17 143.31 644.28 146.94 644.28 129.64 634.17 125.03"/><polygon class="cls-1" points="651.64 131.9 652.76 150.06 664.5 154.9 662.26 135.98 651.64 131.9"/><polygon class="cls-1" points="652.76 158.19 652.76 177.29 665.43 180.68 664.5 161.42 652.76 158.19"/><polygon class="cls-1" points="668.04 137.66 668.04 156.94 679.41 161.42 679.41 142.3 668.04 137.66"/><polygon class="cls-1" points="670.84 162.81 670.84 182.58 681.09 186.04 680.16 166.07 670.84 162.81"/><polygon class="cls-1" points="674.75 189.97 675.96 210.53 681.09 211.13 681.09 192.62 674.75 189.97"/><polygon class="cls-1" points="675.96 215.89 675.96 237.25 684.63 238.29 684.63 217.36 675.96 215.89"/><polygon class="cls-1" points="675.96 242.79 685.56 244 685.56 264.93 677.92 264.93 675.96 242.79"/><polygon class="cls-1" points="685.56 146.94 686.87 164.86 694.7 167.18 693.76 149.54 685.56 146.94"/><polygon class="cls-1" points="687.24 170.13 687.24 187.94 696.19 190.89 694.7 173.59 687.24 170.13"/><polygon class="cls-1" points="690.13 194.35 690.13 214.24 698.98 215.89 698.98 198.47 690.13 194.35"/><polygon class="cls-1" points="691.71 220.38 691.71 239.85 698.98 240.88 698.98 221.68 691.71 220.38"/><polygon class="cls-1" points="692.83 245.18 692.83 264.24 700.1 264.93 698.98 246.42 692.83 245.18"/><polygon class="cls-1" points="700.1 154.19 701.22 170.13 707.18 172.78 707.18 158.19 700.1 154.19"/><polygon class="cls-1" points="712.78 160.61 712.78 175.14 720.05 178.26 719.3 162.6 712.78 160.61"/><polygon class="cls-1" points="701.22 175.14 702.34 192.96 709.79 195.85 709.79 178.26 701.22 175.14"/><polygon class="cls-1" points="714.83 182.06 714.83 195.85 720.05 198.47 720.05 184.39 714.83 182.06"/><polygon class="cls-1" points="703.64 199.71 705.51 217.01 710.54 218.57 709.79 201.61 703.64 199.71"/><polygon class="cls-1" points="717.44 203.86 718.93 221.16 723.03 221.16 723.03 205.12 717.44 203.86"/><polygon class="cls-1" points="706.25 224.08 707.18 242.1 712.78 242.79 711.47 225.14 706.25 224.08"/><polygon class="cls-1" points="707.09 247.81 708.49 265.8 714.08 265.8 712.78 247.81 707.09 247.81"/><polygon class="cls-1" points="721.54 250.23 721.54 265.8 726.01 265.8 726.01 251.09 721.54 250.23"/><polygon class="cls-1" points="718.37 226.35 720.05 244 724.47 245.18 723.77 229.13 718.37 226.35"/><polyline class="cls-1" points="1172.45 126.21 1175.61 139.4 1161.69 278.47"/><polyline class="cls-1" points="1172.45 126.21 1318.21 126.21 1334.43 176.73 1362.81 176.73"/><polyline class="cls-1" points="1362.35 307.3 1362.81 176.73 1362.81 176.73 1362.81 139.4 1361.21 124.49"/><line class="cls-1" x1="1334.43" y1="176.73" x2="1331.79" y2="281.23"/><line class="cls-1" x1="1318.21" y1="126.21" x2="1313.73" y2="297.26"/><polyline class="cls-1" points="1361.21 124.49 1546.2 124.49 1557.84 275.48"/><polygon class="cls-1" points="1187 171.05 1203.09 171.05 1203.09 152.25 1188.11 152.25 1187 171.05"/><polygon class="cls-1" points="1222.79 152.25 1222.79 171.05 1236.66 171.05 1236.66 151.47 1222.79 152.25"/><polygon class="cls-1" points="1256.08 151.47 1256.08 171.05 1268.84 171.05 1268.84 152.25 1256.08 151.47"/><rect class="cls-1" x="1287.85" y="151.47" width="11.89" height="19.58"/><rect class="cls-1" x="1187" y="183.99" width="12.28" height="18.35"/><rect class="cls-1" x="1221.89" y="183.99" width="11.19" height="18.35"/><polygon class="cls-1" points="1183.21 217.63 1197.65 217.63 1197.65 237.84 1182.04 237.84 1183.21 217.63"/><polygon class="cls-1" points="1217.93 217.63 1216.53 237.84 1231.68 237.84 1233.08 217.63 1217.93 217.63"/><polygon class="cls-1" points="1252.89 217.63 1252.89 237.84 1265.94 237.84 1266.64 217.63 1252.89 217.63"/><rect class="cls-1" x="1284.12" y="217.63" width="13.75" height="21.43"/><rect class="cls-1" x="1286.45" y="183.99" width="13.28" height="19.84"/><rect class="cls-1" x="1254.06" y="183.99" width="13.57" height="21.06"/><polygon class="cls-1" points="1179.24 272.06 1179.24 252.62 1195.33 252.62 1194.39 272.06 1179.24 272.06"/><polygon class="cls-1" points="1215.6 252.62 1215.6 272.06 1229.82 272.06 1230.75 252.62 1215.6 252.62"/><rect class="cls-1" x="1249.39" y="252.62" width="14.22" height="17.82"/><polygon class="cls-1" points="1284.12 251.61 1284.12 272.06 1297.87 272.06 1297.87 252.62 1284.12 251.61"/><rect class="cls-1" x="1340.05" y="193.91" width="6.06" height="12.75"/><rect class="cls-1" x="1352.95" y="193.91" width="6.21" height="12.75"/><rect class="cls-1" x="1340.05" y="217.63" width="6.06" height="13.13"/><rect class="cls-1" x="1352.95" y="217.63" width="6.21" height="13.13"/><rect class="cls-1" x="1340.05" y="241.28" width="7.46" height="14.58"/><rect class="cls-1" x="1352.95" y="241.28" width="6.21" height="14.58"/><rect class="cls-1" x="1379.21" y="151.47" width="13.18" height="19.58"/><rect class="cls-1" x="1411.27" y="150.17" width="14.96" height="19.81"/><polygon class="cls-1" points="1379.21 183.99 1379.21 202.34 1393.81 202.34 1392.39 183.99 1379.21 183.99"/><rect class="cls-1" x="1413.41" y="183.99" width="12.83" height="18.35"/><rect class="cls-1" x="1446.9" y="152.26" width="15.32" height="22.99"/><polygon class="cls-1" points="1446.9 182.36 1446.9 203.83 1463.64 203.83 1462.21 182.36 1446.9 182.36"/><rect class="cls-1" x="1379.21" y="217.63" width="14.61" height="20.21"/><rect class="cls-1" x="1379.21" y="251.61" width="14.61" height="21.74"/><rect class="cls-1" x="1414.48" y="252.62" width="15.32" height="20.73"/><rect class="cls-1" x="1450.82" y="252.62" width="17.46" height="22.86"/><rect class="cls-1" x="1489.29" y="252.62" width="17.46" height="22.86"/><polygon class="cls-1" points="1523.13 252.62 1524.56 275.48 1542.02 275.48 1540.23 251.61 1523.13 252.62"/><polygon class="cls-1" points="1521.71 217.63 1523.13 239.06 1538.81 239.06 1538.81 217.63 1521.71 217.63"/><rect class="cls-1" x="1517.79" y="183.99" width="18.17" height="21.06"/><rect class="cls-1" x="1515.65" y="150.17" width="16.92" height="20.88"/><polygon class="cls-1" points="1480.74 152.25 1480.74 171.05 1498.02 171.05 1498.02 151.47 1480.74 152.25"/><rect class="cls-1" x="1484.3" y="182.36" width="17.1" height="21.47"/><rect class="cls-1" x="1413.41" y="217.63" width="16.39" height="21.43"/><rect class="cls-1" x="1449.39" y="217.63" width="16.74" height="21.43"/><polygon class="cls-1" points="1486.44 217.63 1486.44 241.28 1504.25 241.28 1502.83 217.63 1486.44 217.63"/><line class="cls-1" x1="1175.61" y1="139.4" x2="1318.21" y2="139.4"/><line class="cls-1" x1="1362.81" y1="139.4" x2="1547.35" y2="139.4"/><line class="cls-1" x1="1334.18" y1="186.42" x2="1362.81" y2="186.42"/><polyline class="cls-1" points="1340.05 281.23 1340.05 261.53 1356.06 261.53 1356.06 281.23"/><line class="cls-1" x1="1173.34" y1="129.93" x2="1318.11" y2="129.93"/><line class="cls-1" x1="1362.01" y1="128.8" x2="1546.54" y2="128.8"/><line class="cls-1" x1="1683.72" y1="66.77" x2="1680.6" y2="190.6"/><polyline class="cls-1" points="1794.98 190.6 1790.82 66.77 1968.62 164.1 1976.42 246.15"/><line class="cls-1" x1="1683.72" y1="66.77" x2="1790.82" y2="66.77"/><polyline class="cls-1" points="1683.72 66.77 1592.22 150.34 1588.06 273.67"/><polygon class="cls-1" points="1816.32 166.05 1816.32 189.13 1825.93 190.6 1825.93 168.28 1816.32 166.05"/><polygon class="cls-1" points="1814.04 125.1 1814.04 147.81 1823.73 150.41 1823.73 128.69 1814.04 125.1"/><polygon class="cls-1" points="1814.04 88.25 1814.04 108.72 1821.12 111.33 1821.12 92.71 1814.04 88.25"/><polygon class="cls-1" points="1801.24 210.97 1809.33 211.91 1809.33 237.3 1802.67 237.3 1801.24 210.97"/><rect class="cls-1" x="1821.12" y="213.77" width="6.03" height="24.47"/><polygon class="cls-1" points="1841.66 215.63 1847.36 217.03 1848.79 238.24 1843.08 238.24 1841.66 215.63"/><polygon class="cls-1" points="1858.54 218.2 1868.05 218.2 1869.71 243.36 1860.44 243.36 1858.54 218.2"/><polygon class="cls-1" points="1799.82 161.34 1806.95 162.97 1807.9 181.04 1799.82 181.04 1799.82 161.34"/><polygon class="cls-1" points="1798.63 119.86 1805.29 122.89 1805.29 138.74 1798.63 136.18 1798.63 119.86"/><polygon class="cls-1" points="1835.48 132.91 1844.04 136.41 1845.22 156.92 1837.14 153.88 1835.48 132.91"/><polygon class="cls-1" points="1854.73 140.84 1861.86 143.63 1863.05 162.74 1855.68 159.94 1854.73 140.84"/><polygon class="cls-1" points="1838.57 171.19 1846.17 172.99 1847.36 194.66 1840.35 193.5 1838.57 171.19"/><polygon class="cls-1" points="1798.63 81.52 1803.86 84.02 1803.86 99.79 1796.97 98.33 1798.63 81.52"/><rect class="cls-1" x="1755.01" y="75.8" width="17.88" height="22.17"/><polygon class="cls-1" points="1705.75 77.94 1721.81 77.94 1719.62 99.79 1703.93 99.79 1705.75 77.94"/><polygon class="cls-1" points="1703.93 117.64 1718.16 117.64 1718.16 140.84 1701.74 140.84 1703.93 117.64"/><rect class="cls-1" x="1755.01" y="115.14" width="17.88" height="25.7"/><polygon class="cls-1" points="1835.48 99.79 1834.19 117.64 1841.66 119.86 1841.66 102.26 1835.48 99.79"/><polygon class="cls-1" points="1851.89 106.61 1852.93 125.1 1860.53 128.29 1858.89 109.83 1851.89 106.61"/><polygon class="cls-1" points="1868.48 115.25 1869.86 132.91 1875.39 135.23 1874.36 117.45 1868.48 115.25"/><polygon class="cls-1" points="1882.65 122.7 1884.2 138.74 1889.73 140.84 1888.01 125.1 1882.65 122.7"/><polygon class="cls-1" points="1871.94 147.25 1872.63 166.05 1879.19 167.75 1877.64 149.63 1871.94 147.25"/><polygon class="cls-1" points="1886.19 153.18 1891.29 155.22 1892.5 171.98 1887.32 171.19 1886.19 153.18"/><polygon class="cls-1" points="1898.55 157.5 1900.1 174.35 1904.77 175.88 1903.04 159.28 1898.55 157.5"/><polygon class="cls-1" points="1909.95 162.74 1911.68 178.33 1915.82 179.94 1914.27 164.19 1909.95 162.74"/><polygon class="cls-1" points="1920.49 166.69 1921.87 181.8 1925.5 182.93 1924.12 167.75 1920.49 166.69"/><polygon class="cls-1" points="1929.47 170.46 1930.86 184.85 1934.14 185.87 1932.76 171.98 1929.47 170.46"/><polygon class="cls-1" points="1938.8 174.81 1940.19 187.73 1943.12 188.75 1941.74 175.88 1938.8 174.81"/><polygon class="cls-1" points="1947.79 178.33 1948.65 190.6 1951.07 191.63 1950.21 179.26 1947.79 178.33"/><polygon class="cls-1" points="1953.66 181.04 1954.87 193.15 1957.29 193.83 1956.43 181.78 1953.66 181.04"/><polygon class="cls-1" points="1959.54 182.93 1960.57 194.66 1963.17 195.69 1961.35 183.84 1959.54 182.93"/><polygon class="cls-1" points="1964.89 185.87 1965.93 197.05 1967.83 197.05 1966.97 185.87 1964.89 185.87"/><polygon class="cls-1" points="1895.78 129.81 1897.34 144.92 1901.66 146.58 1900.45 131.77 1895.78 129.81"/><polygon class="cls-1" points="1907.01 135.23 1908.74 150.41 1912.89 151.79 1911.68 137.76 1907.01 135.23"/><polygon class="cls-1" points="1917.03 140.84 1918.93 154.71 1922.99 156.46 1921.18 142.34 1917.03 140.84"/><polygon class="cls-1" points="1926.54 144.92 1927.57 159.28 1931.03 160.47 1929.47 147.25 1926.54 144.92"/><polygon class="cls-1" points="1935.87 150.41 1936.9 164.02 1940.96 165.38 1938.8 152.69 1935.87 150.41"/><polygon class="cls-1" points="1944.16 155.22 1945.71 167.75 1948.65 168.76 1947.79 156.92 1944.16 155.22"/><polygon class="cls-1" points="1951.07 159.11 1951.93 171.19 1954.53 171.98 1953.66 160.47 1951.07 159.11"/><polygon class="cls-1" points="1957.29 162.74 1957.98 173.68 1960.75 174.81 1959.02 163.68 1957.29 162.74"/><polygon class="cls-1" points="1963.17 175.88 1961.35 165.38 1964.2 166.69 1965.59 178.16 1963.17 175.88"/><polygon class="cls-1" points="1857.25 175.88 1858.54 197.05 1865.89 198.23 1864.12 178.33 1857.25 175.88"/><polygon class="cls-1" points="1874.36 181.04 1875.57 200.43 1881.27 201.45 1880.4 181.78 1874.36 181.04"/><polygon class="cls-1" points="1889.35 184.98 1889.73 203.14 1895.78 203.99 1894.23 185.87 1889.35 184.98"/><polygon class="cls-1" points="1901.66 187.43 1902.87 205.34 1908.39 206.36 1907.01 189.31 1901.66 187.43"/><polygon class="cls-1" points="1912.89 191.24 1914.27 207.55 1918.42 208.39 1917.03 191.63 1912.89 191.24"/><polygon class="cls-1" points="1922.99 193.83 1924.12 209.24 1927.92 209.92 1926.54 195.69 1922.99 193.83"/><polygon class="cls-1" points="1931.81 195.69 1932.76 210.93 1936.73 211.61 1935.87 197.05 1931.81 195.69"/><polygon class="cls-1" points="1940.96 198.23 1942.26 212.46 1946.41 213.77 1944.85 199.82 1940.96 198.23"/><polygon class="cls-1" points="1949.43 201.45 1951.07 214.66 1953.66 214.66 1952.8 201.87 1949.43 201.45"/><polygon class="cls-1" points="1956.25 203.65 1957.29 215.63 1959.54 215.63 1957.9 203.65 1956.25 203.65"/><polygon class="cls-1" points="1962.3 204.67 1963.17 215.63 1964.89 216.86 1964.89 204.67 1962.3 204.67"/><polygon class="cls-1" points="1967.14 206.36 1967.83 216.86 1969.56 216.86 1969.56 206.36 1967.14 206.36"/><polyline class="cls-1" points="1677.11 192.77 1688.66 192.77 1687.29 188.6 1776.38 186.22 1777.29 190.6 1794.98 190.6"/><polyline class="cls-1" points="1677.11 192.77 1678.17 194.56 1678.17 197.54 1684.4 199.93 1684.4 210.97 1696.26 210.97 1693.83 207.97 1771.06 206.48 1772.28 208.57 1788.24 208.72 1788.24 197.39 1792.8 195.46 1792.8 193.52 1794.98 190.6"/><line class="cls-1" x1="1680.6" y1="189.49" x2="1680.6" y2="192.77"/><path class="cls-1" d="M1695,187.58q.24-6.6.49-13.21l74.76-1.19,2.61,4.64v8.49"/><polygon class="cls-1" points="1710.93 174.13 1711.54 158.91 1759.72 157.96 1760.32 184.48 1710.93 185.55 1710.93 174.13"/><line class="cls-1" x1="1695.03" y1="188.39" x2="1695.03" y2="186.22"/><polyline class="cls-1" points="1684.4 210.97 1685.46 275.8 1684.4 279.79 1694.43 279.79 1692.76 276.39 1691.68 215.3 1693.12 210.97"/><polyline class="cls-1" points="1697.07 210.97 1697.07 276.74 1695.51 279.79 1706.64 279.79 1705.32 276.62 1703.88 212.6 1705.2 207.75"/><polyline class="cls-1" points="1705.2 207.75 1708.02 211.62 1708.42 276.99 1707.23 279.79 1719.06 279.79 1717.48 276.9 1715.51 212.11 1717.87 207.51"/><polyline class="cls-1" points="1728.51 277.19 1727.63 239.72 1744.87 239.72 1746.05 277.67"/><polyline class="cls-1" points="1748.5 206.92 1751.17 210.97 1752.45 276.32 1750.48 279.79 1762.89 279.79 1760.92 276.41 1758.36 210.97 1759.64 206.7"/><polyline class="cls-1" points="1760.43 206.7 1762.89 210.97 1764.37 276.22 1762.89 279.79 1775.11 279.79 1773.43 276.22 1770.48 210.97 1772.03 208.15"/><polyline class="cls-1" points="1778.75 208.63 1780.62 213.17 1782.79 275.06 1781.31 279.79 1793.04 279.79 1790.82 275.54 1788.5 213.17 1790.18 208.63 1788.24 208.72"/><polyline class="cls-1" points="1683.72 66.77 1680.6 60.61 1689.21 55.57 1687.16 50.03 1711.56 48.77 1739.05 42.23 1768.34 47.01 1793 47.26 1793 53.31 1798.65 55.57 1796.97 63.13 1790.82 66.77"/><polyline class="cls-1" points="1592.22 150.34 1598.27 137.41 1681.34 62.08"/><polyline class="cls-1" points="1798.65 55.57 1966.36 155.22 1968.62 164.1"/><polygon class="cls-1" points="1663.48 133.26 1669.64 129.24 1668.1 151.93 1662.52 154.19 1663.48 133.26"/><polygon class="cls-1" points="1650.2 141.72 1654.63 139.1 1654.63 159.66 1649.43 161.93 1650.2 141.72"/><polygon class="cls-1" points="1639.04 150.34 1642.51 147.4 1642.51 166.07 1637.7 167.96 1639.04 150.34"/><polygon class="cls-1" points="1628.84 156.92 1632.5 154.19 1630.67 171.76 1627.5 174.37 1628.84 156.92"/><polygon class="cls-1" points="1619.22 161.93 1623.26 160.04 1623.26 176.83 1619.22 178.71 1619.22 161.93"/><polygon class="cls-1" points="1675.22 125.14 1680.6 122.13 1679.45 140.84 1675.22 143.06 1675.22 125.14"/><polygon class="cls-1" points="1666.94 97.97 1673.1 93.46 1671.37 112.89 1666.08 116.28 1666.94 97.97"/><polygon class="cls-1" points="1653.47 107.42 1659.06 103.83 1656.94 122.13 1652.03 125.71 1653.47 107.42"/><polygon class="cls-1" points="1642.51 117.64 1645.97 114.77 1644.24 131.37 1640.1 134.58 1642.51 117.64"/><polygon class="cls-1" points="1631.73 125.71 1635.19 122.13 1633.46 139.86 1630.77 141.72 1631.73 125.71"/><polygon class="cls-1" points="1623.26 132.6 1626.34 129.24 1624.8 146.27 1621.24 148.16 1623.26 132.6"/><polygon class="cls-1" points="1614.41 140.84 1618.07 137.59 1617.11 152.12 1613.64 154.19 1614.41 140.84"/><polygon class="cls-1" points="1660.4 173.18 1666.08 169.38 1666.08 192.77 1660.4 195.12 1660.4 173.18"/><polygon class="cls-1" points="1647.13 178.71 1652.03 176.45 1652.03 197.38 1647.13 198.71 1647.13 178.71"/><polygon class="cls-1" points="1673.1 166.64 1677.11 164.28 1677.11 183.81 1673.1 185.55 1673.1 166.64"/><polygon class="cls-1" points="1635.89 184.18 1640.1 182.25 1640.1 202.29 1635.89 204.18 1635.89 184.18"/><polygon class="cls-1" points="1626.34 188.39 1630 187.3 1630 204.18 1626.34 205.31 1626.34 188.39"/><polygon class="cls-1" points="1642.51 221.91 1643.66 246.8 1654.63 245.38 1654.63 219.26 1642.51 221.91"/><polygon class="cls-1" points="1660.4 217.19 1660.4 241.71 1664.44 240.96 1664.44 217.19 1660.4 217.19"/><polygon class="cls-1" points="1671.56 214.55 1671.56 239.72 1677.11 239.72 1677.11 213.61 1671.56 214.55"/><polygon class="cls-1" points="1619.22 221.72 1618.07 248.69 1633.85 248.69 1633.85 218.13 1619.22 221.72"/></g></g></svg>