<svg xmlns="http://www.w3.org/2000/svg" viewBox="0 0 626.39 445.11"><defs><style>.cls-1{fill:none;stroke:#231f20;stroke-miterlimit:10;}</style></defs><title>epler</title><g id="Layer_2" data-name="Layer 2"><g id="Layer_2-2" data-name="Layer 2"><line class="cls-1" x1="203.54" y1="22.74" x2="188" y2="445.09"/><polyline class="cls-1" points="26.3 134.34 203.54 22.74 327.79 87.07 330.22 437.75"/><line class="cls-1" x1="26.3" y1="134.34" x2="0.5" y2="400.2"/><polyline class="cls-1" points="327.86 96.46 345.67 92.31 581.08 216.57 590.05 378.8"/><polyline class="cls-1" points="581.3 220.7 587.29 220.7 614.21 235.56 625.26 400.2"/><polygon class="cls-1" points="54.24 130.01 76.83 116.58 76.83 149.55 54.24 160.54 54.24 130.01"/><polygon class="cls-1" points="85.99 111.08 109.8 95.82 109.8 134.34 85.99 144.66 85.99 111.08"/><line class="cls-1" x1="345.67" y1="92.31" x2="349.13" y2="390.1"/><line class="cls-1" x1="587.29" y1="220.7" x2="597.01" y2="355.3"/><polyline class="cls-1" points="26.3 134.34 9.06 130.01 199.55 0.57 247.17 22.74 234.96 39.01"/><polyline class="cls-1" points="243.23 27.99 330.22 73.23 319.83 82.95"/><polyline class="cls-1" points="578.99 215.47 587.29 208.16 355.85 79.33 347.4 86.66 330.6 95.82"/><polyline class="cls-1" points="614.21 235.56 625.26 230.25 590.05 212.43 581.3 213.43"/><polygon class="cls-1" points="26.3 187.4 46.3 177.02 43.25 208.77 23.71 219.15 26.3 187.4"/><polygon class="cls-1" points="118.96 92.31 115.91 124.51 147.04 108.41 150.09 73.84 118.96 92.31"/><polygon class="cls-1" points="158.64 67.46 158.64 102.53 191.61 85 191.61 47.59 158.64 67.46"/><polygon class="cls-1" points="28 146.28 48.81 134.34 46.3 167.48 28 177.02 28 146.28"/><polygon class="cls-1" points="52.28 174.41 74.25 163.62 71.94 198.08 48.81 207.17 52.28 174.41"/><polygon class="cls-1" points="81.57 160.54 107.39 144.66 104.69 182.51 78.87 192.91 81.57 160.54"/><polygon class="cls-1" points="115.91 138.56 144.77 126.24 143.23 163.62 114.33 177.02 115.91 138.56"/><polygon class="cls-1" points="155.56 120.24 188 104.28 188 144.66 153.25 160.54 155.56 120.24"/><polygon class="cls-1" points="19.14 264.98 38.41 258.81 40.34 221.81 20.68 230.25 19.14 264.98"/><polygon class="cls-1" points="46.3 221.81 69.63 212.57 65.39 249.18 46.3 256.11 46.3 221.81"/><polygon class="cls-1" points="76.95 209.1 102 198.08 98.14 236.46 74.25 244.94 76.95 209.1"/><polygon class="cls-1" points="110.47 192.91 110.47 234.34 138.22 223.36 140.15 181.74 110.47 192.91"/><polygon class="cls-1" points="151.71 177.02 151.71 221.51 183.7 208.04 185.24 163.62 151.71 177.02"/><polygon class="cls-1" points="16.06 277.42 37.01 270.65 32.49 308.68 16.06 312.23 16.06 277.42"/><polygon class="cls-1" points="41.84 267.27 65.05 259.37 62.79 300.94 40.34 305.78 41.84 267.27"/><polygon class="cls-1" points="72.46 257.43 96.96 249.7 95.35 291.44 72.46 299.01 72.46 257.43"/><polygon class="cls-1" points="107.59 247.12 137.57 238.41 135.64 284.83 107.59 291.44 107.59 247.12"/><polygon class="cls-1" points="147.24 235.84 147.24 282.57 181.73 274.35 181.73 221.81 147.24 235.84"/><polygon class="cls-1" points="13.4 323.17 32.87 318.55 29.74 359.08 13.4 359.08 13.4 323.17"/><polygon class="cls-1" points="38.25 317.52 62.88 312.23 57.96 357.03 37.01 358.05 38.25 317.52"/><polygon class="cls-1" points="69.63 310.85 95.46 305.78 95.46 353.18 67.5 353.18 69.63 310.85"/><polygon class="cls-1" points="104.18 303.67 134.96 297.77 131.88 350.36 104.18 350.36 104.18 303.67"/><polygon class="cls-1" points="144.2 295.2 181.73 288.02 180.11 343.94 143.17 347.28 144.2 295.2"/><polygon class="cls-1" points="208.75 221.81 208.75 273.06 230.01 276.77 230.01 228.72 208.75 221.81"/><polygon class="cls-1" points="208.75 289.53 232.13 293.78 230.01 347.28 208.75 341.41 208.75 289.53"/><polygon class="cls-1" points="212.57 158.55 236.39 166.63 232.13 215.47 212.57 210.43 212.57 158.55"/><polygon class="cls-1" points="212.57 102.53 210.84 145.02 232.43 151.63 234.41 110.37 212.57 102.53"/><polygon class="cls-1" points="214.53 47.59 214.53 85.94 236.39 93.89 236.39 55.47 214.53 47.59"/><polygon class="cls-1" points="352.78 111.34 352.78 144.87 372.55 153.03 372.55 116.93 352.78 111.34"/><polygon class="cls-1" points="352.78 159.76 374.71 167.76 374.71 202.17 354.25 194.46 352.78 159.76"/><polygon class="cls-1" points="355.43 209.28 374.71 215.47 374.71 252.5 355.43 248.43 355.43 209.28"/><polygon class="cls-1" points="355.43 262.37 376.79 268 376.79 304.18 355.43 301.22 355.43 262.37"/><polygon class="cls-1" points="357.51 317.83 357.51 357.27 379.16 357.27 376.79 320.2 357.51 317.83"/><polygon class="cls-1" points="392.33 130.76 393.58 163.53 411.31 169.44 411.31 138.99 392.33 130.76"/><polygon class="cls-1" points="393.58 175.88 393.58 208.11 412.39 215.47 413.64 180 393.58 175.88"/><polygon class="cls-1" points="396.45 221.01 396.45 258.43 413.64 263.27 413.64 227.09 396.45 221.01"/><polygon class="cls-1" points="396.45 268.82 398.6 312.51 415.79 311.61 414.71 273.06 396.45 268.82"/><polygon class="cls-1" points="397.35 320.03 399.14 362.47 415.79 359.96 415.79 324.15 397.35 320.03"/><polygon class="cls-1" points="426.38 147.4 426.38 178.53 445.48 184.28 445.48 155.32 426.38 147.4"/><polygon class="cls-1" points="428.23 191.06 428.23 219.81 446.3 225.77 445.48 195.68 428.23 191.06"/><polygon class="cls-1" points="431.1 234.39 432.54 268.82 447.12 271.98 446.3 239.12 431.1 234.39"/><polygon class="cls-1" points="432.54 279.17 433.77 314.49 449.18 317.83 449.18 283.28 432.54 279.17"/><polygon class="cls-1" points="433.98 326.4 434.8 363.78 451.64 362.47 450 328.66 433.98 326.4"/><polygon class="cls-1" points="493.48 336.75 504.84 339.53 504.84 368.07 493.48 367.06 493.48 336.75"/><polygon class="cls-1" points="490.45 293.56 492.21 325.38 503.58 327.66 503.58 297.1 490.45 293.56"/><polygon class="cls-1" points="489.44 252.5 490.45 283.46 501.31 285.98 501.31 257.7 489.44 252.5"/><polygon class="cls-1" points="462.16 242.14 462.16 275.63 475.8 279.17 475.8 247.09 462.16 242.14"/><polygon class="cls-1" points="463.68 288 463.68 320.03 478.07 322.1 478.07 290.66 463.68 288"/><polygon class="cls-1" points="465.44 331.19 465.44 364.78 479.84 366.05 478.07 333.72 465.44 331.19"/><polygon class="cls-1" points="458.94 202.38 458.94 232.19 472.64 235.56 472.64 208.41 458.94 202.38"/><polygon class="cls-1" points="458.95 165.84 458.94 192.53 472.64 197.84 472.64 172.58 458.95 165.84"/><polygon class="cls-1" points="482.62 175.88 484.13 202.38 500.05 209.46 497.01 181.84 482.62 175.88"/><polygon class="cls-1" points="484.13 214.25 484.13 242.14 501.31 247.09 500.05 218.97 484.13 214.25"/><polygon class="cls-1" points="504.84 184.28 504.84 212.43 520.25 218.97 520.25 191.06 504.84 184.28"/><polygon class="cls-1" points="508.63 221.01 508.63 249.87 522.52 254.92 521.26 225.77 508.63 221.01"/><polygon class="cls-1" points="513.94 260.65 515.58 290.66 522.52 291.54 522.52 264.51 513.94 260.65"/><polygon class="cls-1" points="515.58 298.5 515.58 329.68 527.32 331.19 527.32 300.63 515.58 298.5"/><polygon class="cls-1" points="515.58 337.76 528.59 339.53 528.59 370.09 518.23 370.09 515.58 337.76"/><polygon class="cls-1" points="528.59 197.84 530.35 223.99 540.96 227.39 539.7 201.63 528.59 197.84"/><polygon class="cls-1" points="530.86 231.68 530.86 257.7 542.98 261.99 540.96 236.73 530.86 231.68"/><polygon class="cls-1" points="534.77 267.04 534.77 296.09 546.77 298.5 546.77 273.06 534.77 267.04"/><polygon class="cls-1" points="536.92 305.05 536.92 333.46 546.77 334.98 546.77 306.95 536.92 305.05"/><polygon class="cls-1" points="538.43 341.25 538.43 369.08 548.28 370.09 546.77 343.06 538.43 341.25"/><polygon class="cls-1" points="548.28 208.41 549.8 231.68 557.88 235.56 557.88 214.25 548.28 208.41"/><polygon class="cls-1" points="565.46 217.79 565.46 239.01 575.31 243.55 574.3 220.7 565.46 217.79"/><polygon class="cls-1" points="549.8 239.01 551.32 265.02 561.42 269.24 561.42 243.55 549.8 239.01"/><polygon class="cls-1" points="568.24 249.11 568.24 269.24 575.31 273.06 575.31 252.5 568.24 249.11"/><polygon class="cls-1" points="553.08 274.87 555.61 300.13 562.43 302.4 561.42 277.65 553.08 274.87"/><polygon class="cls-1" points="571.77 280.93 573.79 306.19 579.35 306.19 579.35 282.77 571.77 280.93"/><polygon class="cls-1" points="556.62 310.45 557.88 336.75 565.46 337.76 563.69 312 556.62 310.45"/><polygon class="cls-1" points="557.76 345.1 559.65 371.35 567.23 371.35 565.46 345.1 557.76 345.1"/><polygon class="cls-1" points="577.33 348.62 577.33 371.35 583.39 371.35 583.39 349.88 577.33 348.62"/><polygon class="cls-1" points="573.04 313.76 575.31 339.53 581.3 341.25 580.36 317.83 573.04 313.76"/></g></g></svg>