<svg xmlns="http://www.w3.org/2000/svg" viewBox="0 0 609.01 323.49"><defs><style>.cls-1{fill:none;stroke:#231f20;stroke-miterlimit:10;}</style></defs><title>king</title><g id="Layer_2" data-name="Layer 2"><g id="Layer_2-2" data-name="Layer 2"><polyline class="cls-1" points="17.01 3.54 21.86 26.85 0.5 272.55"/><polyline class="cls-1" points="17.01 3.54 240.72 3.54 265.62 92.8 309.17 92.8"/><polyline class="cls-1" points="308.47 323.48 309.17 92.8 309.17 92.8 309.17 26.84 306.73 0.5"/><line class="cls-1" x1="265.62" y1="92.8" x2="261.56" y2="277.43"/><line class="cls-1" x1="240.72" y1="3.54" x2="233.85" y2="305.75"/><polyline class="cls-1" points="306.73 0.5 590.66 0.5 608.51 267.27"/><polygon class="cls-1" points="39.34 82.77 64.04 82.77 64.04 49.56 41.05 49.56 39.34 82.77"/><polygon class="cls-1" points="94.27 49.56 94.27 82.77 115.56 82.77 115.56 48.17 94.27 49.56"/><polygon class="cls-1" points="145.36 48.17 145.36 82.77 164.95 82.77 164.95 49.56 145.36 48.17"/><rect class="cls-1" x="194.13" y="48.17" width="18.24" height="34.6"/><rect class="cls-1" x="39.34" y="105.62" width="18.86" height="32.43"/><rect class="cls-1" x="92.89" y="105.62" width="17.17" height="32.43"/><polygon class="cls-1" points="33.52 165.06 55.69 165.06 55.69 200.77 31.73 200.77 33.52 165.06"/><polygon class="cls-1" points="86.81 165.06 84.67 200.77 107.92 200.77 110.06 165.06 86.81 165.06"/><polygon class="cls-1" points="140.47 165.06 140.47 200.77 160.5 200.77 161.57 165.06 140.47 165.06"/><rect class="cls-1" x="188.4" y="165.06" width="21.1" height="37.86"/><rect class="cls-1" x="191.98" y="105.62" width="20.39" height="35.06"/><rect class="cls-1" x="142.26" y="105.62" width="20.83" height="37.2"/><polygon class="cls-1" points="27.43 261.22 27.43 226.88 52.12 226.88 50.69 261.22 27.43 261.22"/><polygon class="cls-1" points="83.24 226.88 83.24 261.22 105.06 261.22 106.49 226.88 83.24 226.88"/><rect class="cls-1" x="135.1" y="226.88" width="21.82" height="31.48"/><polygon class="cls-1" points="188.4 225.09 188.4 261.22 209.51 261.22 209.51 226.88 188.4 225.09"/><rect class="cls-1" x="274.25" y="123.15" width="9.3" height="22.54"/><rect class="cls-1" x="294.05" y="123.15" width="9.53" height="22.54"/><rect class="cls-1" x="274.25" y="165.06" width="9.3" height="23.19"/><rect class="cls-1" x="294.05" y="165.06" width="9.53" height="23.19"/><rect class="cls-1" x="274.25" y="206.85" width="11.45" height="25.75"/><rect class="cls-1" x="294.05" y="206.85" width="9.53" height="25.75"/><rect class="cls-1" x="334.35" y="48.17" width="20.23" height="34.6"/><rect class="cls-1" x="383.56" y="45.88" width="22.97" height="34.99"/><polygon class="cls-1" points="334.35 105.62 334.35 138.05 356.76 138.05 354.58 105.62 334.35 105.62"/><rect class="cls-1" x="386.84" y="105.62" width="19.68" height="32.43"/><rect class="cls-1" x="438.24" y="49.56" width="23.51" height="40.61"/><polygon class="cls-1" points="438.24 102.75 438.24 140.68 463.94 140.68 461.75 102.75 438.24 102.75"/><rect class="cls-1" x="334.35" y="165.06" width="22.42" height="35.71"/><rect class="cls-1" x="334.35" y="225.09" width="22.42" height="38.41"/><rect class="cls-1" x="388.48" y="226.88" width="23.51" height="36.62"/><rect class="cls-1" x="444.25" y="226.88" width="26.79" height="40.39"/><rect class="cls-1" x="503.3" y="226.88" width="26.79" height="40.39"/><polygon class="cls-1" points="555.25 226.88 557.44 267.27 584.23 267.27 581.5 225.09 555.25 226.88"/><polygon class="cls-1" points="553.06 165.06 555.25 202.92 579.31 202.92 579.31 165.06 553.06 165.06"/><rect class="cls-1" x="547.05" y="105.62" width="27.89" height="37.2"/><rect class="cls-1" x="543.77" y="45.88" width="25.97" height="36.89"/><polygon class="cls-1" points="490.18 49.56 490.18 82.77 516.7 82.77 516.7 48.17 490.18 49.56"/><rect class="cls-1" x="495.65" y="102.75" width="26.25" height="37.93"/><rect class="cls-1" x="386.84" y="165.06" width="25.15" height="37.86"/><rect class="cls-1" x="442.06" y="165.06" width="25.7" height="37.86"/><polygon class="cls-1" points="498.93 165.06 498.93 206.85 526.27 206.85 524.08 165.06 498.93 165.06"/><line class="cls-1" x1="21.86" y1="26.85" x2="240.72" y2="26.85"/><line class="cls-1" x1="309.17" y1="26.84" x2="592.42" y2="26.84"/><line class="cls-1" x1="265.24" y1="109.92" x2="309.17" y2="109.92"/><polyline class="cls-1" points="274.25 277.43 274.25 242.62 298.82 242.62 298.82 277.43"/><line class="cls-1" x1="18.38" y1="10.11" x2="240.57" y2="10.11"/><line class="cls-1" x1="307.95" y1="8.12" x2="591.17" y2="8.12"/></g></g></svg>