<svg xmlns="http://www.w3.org/2000/svg" viewBox="0 0 598.81 374.09"><defs><style>.cls-1{fill:none;stroke:#231f20;stroke-miterlimit:10;}</style></defs><title>mont</title><g id="Layer_2" data-name="Layer 2"><g id="Layer_2-2" data-name="Layer 2"><line class="cls-1" x1="147.75" y1="39.06" x2="142.95" y2="233.52"/><polyline class="cls-1" points="319.01 233.53 312.61 39.06 586.3 191.91 598.31 320.75"/><line class="cls-1" x1="147.75" y1="39.06" x2="312.61" y2="39.06"/><polyline class="cls-1" points="147.75 39.06 6.9 170.3 0.5 363.97"/><polygon class="cls-1" points="351.87 194.97 351.87 231.22 366.65 233.53 366.65 198.48 351.87 194.97"/><polygon class="cls-1" points="348.36 130.66 348.36 166.32 363.27 170.41 363.27 136.29 348.36 130.66"/><polygon class="cls-1" points="348.36 72.78 348.36 104.94 359.26 109.03 359.26 79.8 348.36 72.78"/><polygon class="cls-1" points="328.66 265.52 341.1 266.98 341.1 306.87 330.86 306.87 328.66 265.52"/><rect class="cls-1" x="359.26" y="269.91" width="9.29" height="38.42"/><polygon class="cls-1" points="390.87 272.84 399.65 275.03 401.85 308.33 393.06 308.33 390.87 272.84"/><polygon class="cls-1" points="416.85 276.86 431.49 276.86 434.05 316.38 419.78 316.38 416.85 276.86"/><polygon class="cls-1" points="326.46 187.57 337.44 190.13 338.91 218.5 326.46 218.5 326.46 187.57"/><polygon class="cls-1" points="324.63 122.44 334.88 127.19 334.88 152.08 324.63 148.05 324.63 122.44"/><polygon class="cls-1" points="381.36 142.93 394.53 148.42 396.36 180.63 383.92 175.86 381.36 142.93"/><polygon class="cls-1" points="411 155.37 421.97 159.76 423.8 189.77 412.46 185.38 411 155.37"/><polygon class="cls-1" points="386.11 203.04 397.82 205.87 399.65 239.9 388.86 238.07 386.11 203.04"/><polygon class="cls-1" points="324.63 62.22 332.69 66.15 332.69 90.91 322.08 88.61 324.63 62.22"/><rect class="cls-1" x="257.49" y="53.23" width="27.52" height="34.82"/><polygon class="cls-1" points="181.66 56.6 206.38 56.6 203.01 90.91 178.86 90.91 181.66 56.6"/><polygon class="cls-1" points="178.86 118.94 200.76 118.94 200.76 155.37 175.49 155.37 178.86 118.94"/><rect class="cls-1" x="257.49" y="115.01" width="27.52" height="40.36"/><polygon class="cls-1" points="381.36 90.91 379.37 118.94 390.87 122.44 390.87 94.79 381.36 90.91"/><polygon class="cls-1" points="406.63 101.62 408.22 130.66 419.93 135.66 417.4 106.67 406.63 101.62"/><polygon class="cls-1" points="432.16 115.18 434.29 142.93 442.8 146.57 441.2 118.64 432.16 115.18"/><polygon class="cls-1" points="453.97 126.89 456.36 152.08 464.87 155.37 462.21 130.66 453.97 126.89"/><polygon class="cls-1" points="437.48 165.45 438.54 194.97 448.65 197.63 446.26 169.18 437.48 165.45"/><polygon class="cls-1" points="459.42 174.76 467.27 177.95 469.13 204.28 461.15 203.04 459.42 174.76"/><polygon class="cls-1" points="478.44 181.54 480.83 208.01 488.01 210.4 485.35 184.34 478.44 181.54"/><polygon class="cls-1" points="495.99 189.77 498.65 214.25 505.04 216.78 502.64 192.05 495.99 189.77"/><polygon class="cls-1" points="512.22 195.97 514.34 219.71 519.93 221.47 517.8 197.63 512.22 195.97"/><polygon class="cls-1" points="526.05 201.89 528.17 224.5 533.23 226.09 531.1 204.28 526.05 201.89"/><polygon class="cls-1" points="540.41 208.72 542.54 229.02 547.06 230.61 544.93 210.4 540.41 208.72"/><polygon class="cls-1" points="554.24 214.25 555.57 233.53 559.29 235.13 557.96 215.72 554.24 214.25"/><polygon class="cls-1" points="563.28 218.5 565.14 237.53 568.87 238.59 567.54 219.67 563.28 218.5"/><polygon class="cls-1" points="572.32 221.47 573.92 239.9 577.91 241.52 575.12 222.9 572.32 221.47"/><polygon class="cls-1" points="580.57 226.09 582.16 243.65 585.09 243.65 583.76 226.09 580.57 226.09"/><polygon class="cls-1" points="474.18 138.06 476.58 161.78 483.23 164.39 481.36 141.13 474.18 138.06"/><polygon class="cls-1" points="491.47 146.57 494.13 170.41 500.51 172.57 498.65 150.54 491.47 146.57"/><polygon class="cls-1" points="506.9 155.37 509.82 177.15 516.07 179.91 513.28 157.74 506.9 155.37"/><polygon class="cls-1" points="521.52 161.78 523.12 184.34 528.44 186.2 526.05 165.45 521.52 161.78"/><polygon class="cls-1" points="535.89 170.41 537.48 191.78 543.73 193.91 540.41 173.99 535.89 170.41"/><polygon class="cls-1" points="548.65 177.95 551.05 197.63 555.57 199.23 554.24 180.63 548.65 177.95"/><polygon class="cls-1" points="559.29 184.07 560.62 203.04 564.61 204.28 563.28 186.2 559.29 184.07"/><polygon class="cls-1" points="568.87 189.77 569.93 206.94 574.19 208.72 571.53 191.25 568.87 189.77"/><polygon class="cls-1" points="577.91 210.4 575.12 193.91 579.5 195.97 581.63 213.99 577.91 210.4"/><polygon class="cls-1" points="414.87 210.4 416.85 243.65 428.17 245.51 425.45 214.25 414.87 210.4"/><polygon class="cls-1" points="441.2 218.5 443.06 248.96 451.84 250.56 450.51 219.67 441.2 218.5"/><polygon class="cls-1" points="464.28 224.69 464.87 253.22 474.18 254.55 471.79 226.09 464.28 224.69"/><polygon class="cls-1" points="483.23 228.55 485.09 256.68 493.6 258.27 491.47 231.49 483.23 228.55"/><polygon class="cls-1" points="500.51 234.53 502.64 260.13 509.02 261.46 506.9 235.13 500.51 234.53"/><polygon class="cls-1" points="516.07 238.59 517.8 262.8 523.65 263.86 521.52 241.52 516.07 238.59"/><polygon class="cls-1" points="529.64 241.52 531.1 265.45 537.22 266.52 535.89 243.65 529.64 241.52"/><polygon class="cls-1" points="543.73 245.51 545.73 267.85 552.11 269.91 549.72 248 543.73 245.51"/><polygon class="cls-1" points="556.76 250.56 559.29 271.31 563.28 271.31 561.95 251.22 556.76 250.56"/><polygon class="cls-1" points="567.27 254.02 568.87 272.84 572.32 272.84 569.8 254.02 567.27 254.02"/><polygon class="cls-1" points="576.58 255.61 577.91 272.84 580.57 274.76 580.57 255.61 576.58 255.61"/><polygon class="cls-1" points="584.03 258.27 585.09 274.76 587.75 274.76 587.75 258.27 584.03 258.27"/><polyline class="cls-1" points="137.57 236.93 155.35 236.93 153.25 230.38 290.39 226.64 291.79 233.53 319.01 233.53"/><polyline class="cls-1" points="137.57 236.93 139.21 239.74 139.21 244.42 148.8 248.17 148.8 265.52 167.06 265.52 163.31 260.8 282.19 258.46 284.07 261.74 308.64 261.97 308.64 244.19 315.66 241.15 315.66 238.1 319.01 233.53"/><line class="cls-1" x1="142.95" y1="231.79" x2="142.95" y2="236.93"/><path class="cls-1" d="M165.17,228.77q.36-10.36.74-20.73L281,206.17l4,7.29v13.32"/><polygon class="cls-1" points="189.64 207.65 190.57 183.75 264.74 182.26 265.67 223.92 189.64 225.6 189.64 207.65"/><line class="cls-1" x1="165.17" y1="230.06" x2="165.17" y2="226.64"/><polyline class="cls-1" points="148.8 265.52 150.43 367.32 148.8 373.59 164.24 373.59 161.66 368.25 160.01 272.31 162.22 265.52"/><polyline class="cls-1" points="168.29 265.52 168.29 368.8 165.9 373.59 183.03 373.59 181 368.61 178.79 268.07 180.82 260.46"/><polyline class="cls-1" points="180.82 260.46 185.16 266.54 185.77 369.2 183.95 373.59 202.14 373.59 199.72 369.05 196.69 267.3 200.32 260.08"/><polyline class="cls-1" points="216.7 369.5 215.34 310.66 241.87 310.66 243.69 370.26"/><polyline class="cls-1" points="247.47 259.15 251.58 265.52 253.55 368.13 250.51 373.59 269.62 373.59 266.59 368.29 262.65 265.52 264.62 258.81"/><polyline class="cls-1" points="265.83 258.81 269.62 265.52 271.9 367.98 269.62 373.59 288.43 373.59 285.85 367.98 281.3 265.52 283.69 261.08"/><polyline class="cls-1" points="294.04 261.83 296.92 268.96 300.25 366.16 297.98 373.59 316.02 373.59 312.61 366.92 309.05 268.96 311.63 261.83 308.64 261.97"/><polyline class="cls-1" points="147.75 39.06 142.95 29.38 156.21 21.47 153.04 12.77 190.61 10.79 232.93 0.51 278.01 8.02 315.97 8.42 315.97 17.91 324.67 21.47 322.08 33.33 312.61 39.06"/><polyline class="cls-1" points="6.9 170.3 16.21 149.99 144.09 31.68"/><polyline class="cls-1" points="324.67 21.47 582.83 177.95 586.3 191.91"/><polygon class="cls-1" points="116.6 143.47 126.08 137.16 123.71 172.79 115.12 176.35 116.6 143.47"/><polygon class="cls-1" points="96.16 156.75 102.97 152.65 102.97 184.94 94.97 188.49 96.16 156.75"/><polygon class="cls-1" points="78.98 170.3 84.31 165.68 84.31 195.01 76.91 197.97 78.98 170.3"/><polygon class="cls-1" points="63.28 180.63 68.91 176.35 66.09 203.93 61.21 208.04 63.28 180.63"/><polygon class="cls-1" points="48.47 188.49 54.69 185.53 54.69 211.89 48.47 214.85 48.47 188.49"/><polygon class="cls-1" points="134.67 130.73 142.95 125.99 141.18 155.37 134.67 158.87 134.67 130.73"/><polygon class="cls-1" points="121.93 88.05 131.41 80.97 128.74 111.48 120.6 116.81 121.93 88.05"/><polygon class="cls-1" points="101.19 102.89 109.78 97.26 106.53 125.99 98.97 131.62 101.19 102.89"/><polygon class="cls-1" points="84.31 118.94 89.64 114.44 86.98 140.5 80.61 145.54 84.31 118.94"/><polygon class="cls-1" points="67.72 131.62 73.05 125.99 70.39 153.83 66.24 156.75 67.72 131.62"/><polygon class="cls-1" points="54.69 142.43 59.43 137.16 57.06 163.91 51.58 166.87 54.69 142.43"/><polygon class="cls-1" points="41.06 155.37 46.69 150.28 45.21 173.09 39.88 176.35 41.06 155.37"/><polygon class="cls-1" points="111.86 206.17 120.6 200.19 120.6 236.93 111.86 240.62 111.86 206.17"/><polygon class="cls-1" points="91.42 214.85 98.97 211.3 98.97 244.18 91.42 246.25 91.42 214.85"/><polygon class="cls-1" points="131.41 195.9 137.57 192.19 137.57 222.85 131.41 225.6 131.41 195.9"/><polygon class="cls-1" points="74.13 223.44 80.61 220.41 80.61 251.88 74.13 254.84 74.13 223.44"/><polygon class="cls-1" points="59.43 230.06 65.06 228.35 65.06 254.84 59.43 256.62 59.43 230.06"/><polygon class="cls-1" points="84.31 282.69 86.09 321.79 102.97 319.55 102.97 278.54 84.31 282.69"/><polygon class="cls-1" points="111.86 275.28 111.86 313.79 118.08 312.6 118.08 275.28 111.86 275.28"/><polygon class="cls-1" points="129.04 271.13 129.04 310.66 137.57 310.66 137.57 269.65 129.04 271.13"/><polygon class="cls-1" points="48.47 282.39 46.69 324.75 70.98 324.75 70.98 276.76 48.47 282.39"/></g></g></svg>