<svg xmlns="http://www.w3.org/2000/svg" viewBox="0 0 313.71 325.18"><defs><style>.cls-1{fill:none;stroke:#231f20;stroke-miterlimit:10;}</style></defs><title>ondine</title><g id="Layer_2" data-name="Layer 2"><g id="Layer_2-2" data-name="Layer 2"><polyline class="cls-1" points="0.5 308.89 6.61 19.77 24.08 9.29 44.17 14.53 57.28 0.55 107.94 11.91 148.99 21.51 187.43 30.25 219.74 39.86 253.81 48.59 283.51 54.71 307.09 59.95 313.21 257.35"/><line class="cls-1" x1="39.81" y1="314.13" x2="44.17" y2="14.53"/><line class="cls-1" x1="57.28" y1="0.55" x2="54.66" y2="325.17"/><line class="cls-1" x1="107.94" y1="11.91" x2="105.81" y2="209.21"/><line class="cls-1" x1="111.95" y1="12.85" x2="111.95" y2="219.77"/><line class="cls-1" x1="69.11" y1="9.86" x2="64.81" y2="299.57"/><line class="cls-1" x1="96.39" y1="17.96" x2="96.39" y2="282.77"/><line class="cls-1" x1="139.55" y1="28.11" x2="139.55" y2="284.92"/><line class="cls-1" x1="117.3" y1="22.1" x2="117.3" y2="270.48"/><line class="cls-1" x1="159.4" y1="33.53" x2="159.4" y2="270.48"/><line class="cls-1" x1="179.24" y1="35.93" x2="179.24" y2="248.83"/><line class="cls-1" x1="196.08" y1="41.95" x2="196.08" y2="260.26"/><line class="cls-1" x1="214.73" y1="46.16" x2="214.73" y2="241.62"/><line class="cls-1" x1="229.16" y1="49.77" x2="229.16" y2="248.83"/><line class="cls-1" x1="246.6" y1="53.98" x2="249.61" y2="254.24"/><line class="cls-1" x1="258.63" y1="56.98" x2="261.64" y2="251.24"/><line class="cls-1" x1="274.27" y1="61.79" x2="277.87" y2="251.24"/><line class="cls-1" x1="285.69" y1="61.79" x2="289.3" y2="241.62"/><line class="cls-1" x1="299.52" y1="68.41" x2="304.94" y2="251.24"/><line class="cls-1" x1="69.11" y1="9.86" x2="96.39" y2="17.96"/><line class="cls-1" x1="68.84" y1="28.11" x2="96.39" y2="33.53"/><line class="cls-1" x1="68.57" y1="46.16" x2="96.39" y2="52.27"/><line class="cls-1" x1="68.57" y1="66.23" x2="96.39" y2="71.5"/><line class="cls-1" x1="67.99" y1="85.08" x2="96.39" y2="89.23"/><line class="cls-1" x1="67.7" y1="104.68" x2="96.39" y2="107.7"/><line class="cls-1" x1="67.42" y1="123.92" x2="96.39" y2="125.8"/><line class="cls-1" x1="66.96" y1="142.38" x2="96.39" y2="143.89"/><line class="cls-1" x1="66.84" y1="162.86" x2="96.39" y2="162.86"/><line class="cls-1" x1="66.59" y1="179.76" x2="96.39" y2="179.76"/><line class="cls-1" x1="66.26" y1="201.97" x2="96.39" y2="201.97"/><line class="cls-1" x1="65.99" y1="219.77" x2="96.39" y2="219.77"/><line class="cls-1" x1="117.3" y1="22.1" x2="139.55" y2="28.11"/><line class="cls-1" x1="117.3" y1="40.21" x2="139.55" y2="44.36"/><line class="cls-1" x1="117.3" y1="56.98" x2="139.55" y2="61.79"/><line class="cls-1" x1="117.3" y1="73.59" x2="139.55" y2="77.94"/><line class="cls-1" x1="117.3" y1="92.52" x2="139.55" y2="95.59"/><line class="cls-1" x1="117.3" y1="110.56" x2="139.55" y2="112.73"/><line class="cls-1" x1="117.3" y1="127.05" x2="139.55" y2="130.12"/><line class="cls-1" x1="117.3" y1="146.29" x2="139.55" y2="146.29"/><line class="cls-1" x1="117.3" y1="164.65" x2="139.55" y2="164.65"/><line class="cls-1" x1="117.3" y1="182.56" x2="139.55" y2="182.56"/><line class="cls-1" x1="117.3" y1="200.46" x2="139.55" y2="200.46"/><line class="cls-1" x1="150.45" y1="21.85" x2="150.45" y2="248.83"/><line class="cls-1" x1="154.64" y1="22.1" x2="154.64" y2="279.53"/><line class="cls-1" x1="159.4" y1="33.85" x2="179.24" y2="36.25"/><line class="cls-1" x1="159.4" y1="49.22" x2="179.24" y2="52.27"/><line class="cls-1" x1="159.4" y1="64.04" x2="179.24" y2="68.41"/><line class="cls-1" x1="159.4" y1="81.57" x2="179.24" y2="83.76"/><line class="cls-1" x1="159.4" y1="97.85" x2="179.24" y2="100.36"/><line class="cls-1" x1="159.4" y1="116.31" x2="179.24" y2="116.31"/><line class="cls-1" x1="159.4" y1="131.36" x2="179.24" y2="133.24"/><line class="cls-1" x1="159.4" y1="149.3" x2="179.24" y2="150.37"/><line class="cls-1" x1="159.4" y1="166.42" x2="179.24" y2="166.42"/><line class="cls-1" x1="159.4" y1="182.56" x2="179.24" y2="182.56"/><line class="cls-1" x1="159.4" y1="200.46" x2="179.24" y2="200.46"/><line class="cls-1" x1="187.42" y1="30.25" x2="185.83" y2="235.62"/><line class="cls-1" x1="192.42" y1="31.73" x2="190.21" y2="219.77"/><line class="cls-1" x1="196.08" y1="41.95" x2="214.73" y2="46.16"/><line class="cls-1" x1="196.08" y1="56.98" x2="214.73" y2="60.01"/><line class="cls-1" x1="196.08" y1="71.96" x2="214.73" y2="75.6"/><line class="cls-1" x1="196.08" y1="87.03" x2="214.73" y2="91.01"/><line class="cls-1" x1="196.08" y1="102.96" x2="214.73" y2="105.74"/><line class="cls-1" x1="196.08" y1="119.25" x2="214.73" y2="120.46"/><line class="cls-1" x1="196.08" y1="135.01" x2="214.73" y2="136.92"/><line class="cls-1" x1="196.08" y1="151.7" x2="214.73" y2="151.7"/><line class="cls-1" x1="196.08" y1="166.42" x2="214.73" y2="168.1"/><line class="cls-1" x1="196.08" y1="182.56" x2="214.73" y2="183.51"/><line class="cls-1" x1="196.08" y1="199.62" x2="214.73" y2="198.93"/><line class="cls-1" x1="229.16" y1="49.77" x2="246.6" y2="53.98"/><line class="cls-1" x1="229.16" y1="64.04" x2="246.82" y2="68.41"/><line class="cls-1" x1="229.16" y1="78.79" x2="247.01" y2="81.57"/><line class="cls-1" x1="229.16" y1="94.04" x2="247.24" y2="96.75"/><line class="cls-1" x1="229.16" y1="109.3" x2="247.24" y2="111.26"/><line class="cls-1" x1="229.16" y1="123.56" x2="247.24" y2="124.55"/><line class="cls-1" x1="229.16" y1="139.06" x2="248.1" y2="139.06"/><line class="cls-1" x1="229.16" y1="153.46" x2="248.09" y2="153.46"/><line class="cls-1" x1="229.16" y1="168.6" x2="248.32" y2="168.6"/><line class="cls-1" x1="229.16" y1="185.16" x2="248.57" y2="185.16"/><line class="cls-1" x1="229.16" y1="199.62" x2="248.79" y2="199.62"/><line class="cls-1" x1="229.16" y1="215.01" x2="249.02" y2="215.01"/><line class="cls-1" x1="229.16" y1="230.72" x2="249.02" y2="230.72"/><line class="cls-1" x1="258.63" y1="56.98" x2="274.27" y2="61.79"/><line class="cls-1" x1="258.63" y1="70.26" x2="274.27" y2="73.78"/><line class="cls-1" x1="259.04" y1="83.76" x2="274.75" y2="87.03"/><line class="cls-1" x1="259.04" y1="97.85" x2="275" y2="100.36"/><line class="cls-1" x1="259.49" y1="112.34" x2="275.28" y2="115.27"/><line class="cls-1" x1="259.71" y1="126.61" x2="275.53" y2="128.32"/><line class="cls-1" x1="259.71" y1="140.76" x2="275.8" y2="142.59"/><line class="cls-1" x1="260.13" y1="154.72" x2="276.07" y2="156.52"/><line class="cls-1" x1="260.37" y1="169.79" x2="276.34" y2="170.52"/><line class="cls-1" x1="260.61" y1="185.16" x2="276.62" y2="185.16"/><line class="cls-1" x1="260.61" y1="199.62" x2="276.62" y2="200.17"/><line class="cls-1" x1="260.61" y1="215.01" x2="277.18" y2="215.01"/><line class="cls-1" x1="261.3" y1="229.32" x2="277.44" y2="228.22"/><line class="cls-1" x1="285.69" y1="61.79" x2="299.52" y2="68.41"/><line class="cls-1" x1="285.69" y1="75.75" x2="299.52" y2="78.79"/><line class="cls-1" x1="286.23" y1="88.56" x2="300.21" y2="91.73"/><line class="cls-1" x1="286.23" y1="103.32" x2="300.61" y2="105.14"/><line class="cls-1" x1="286.78" y1="116" x2="301.03" y2="119.3"/><line class="cls-1" x1="287.05" y1="129.3" x2="301.41" y2="132.1"/><line class="cls-1" x1="287.35" y1="144.18" x2="301.79" y2="144.91"/><line class="cls-1" x1="287.61" y1="157.23" x2="302.15" y2="157.23"/><line class="cls-1" x1="287.61" y1="171.87" x2="302.61" y2="172.6"/><line class="cls-1" x1="287.61" y1="185.16" x2="302.61" y2="185.16"/><line class="cls-1" x1="288.46" y1="199.89" x2="303.43" y2="200.17"/><line class="cls-1" x1="288.72" y1="212.49" x2="303.43" y2="212.49"/><line class="cls-1" x1="289.01" y1="227.24" x2="304.23" y2="227.24"/><line class="cls-1" x1="221.11" y1="40.21" x2="221.92" y2="237.07"/><line class="cls-1" x1="225.12" y1="41.95" x2="225.12" y2="228.22"/><line class="cls-1" x1="251.44" y1="47.98" x2="253.85" y2="219.77"/><line class="cls-1" x1="255.23" y1="49.22" x2="258.63" y2="219.77"/><line class="cls-1" x1="277.87" y1="53.55" x2="281.89" y2="230.72"/><line class="cls-1" x1="281.89" y1="53.55" x2="283.96" y2="203.09"/></g></g></svg>